<svg xmlns="http://www.w3.org/2000/svg" viewBox="0 0 320 180" role="img">
  <rect width="320" height="180" rx="24" fill="#F7F4E9"/>

  <rect
    x="76" y="29" width="168" height="122" rx="18"
    fill="#FFFDF8" stroke="#103E3E" stroke-width="5"
  />

  <g fill="#E4EEE9" stroke="#294F4B" stroke-width="3">
    <circle cx="112" cy="63" r="13"/>
    <circle cx="160" cy="63" r="13"/>
    <circle cx="208" cy="63" r="13"/>
    <circle cx="112" cy="111" r="13"/>
    <circle cx="160" cy="111" r="13"/>
    <circle cx="208" cy="111" r="13"/>
  </g>

  <g transform="translate(116 66) rotate(-35 44 22)">
    <rect
      x="0" y="0" width="88" height="44" rx="22"
      fill="#FFFDF8" stroke="#103E3E" stroke-width="5"
    />
    <path
      d="M22 2h22v40H22a20 20 0 0 1 0-40Z"
      fill="#B8A7C9"
    />
    <path
      d="M44 2h22a20 20 0 0 1 0 40H44Z"
      fill="#FF7900"
    />
    <path d="M44 2v40" stroke="#103E3E" stroke-width="4"/>
    <rect
      x="0" y="0" width="88" height="44" rx="22"
      fill="none" stroke="#103E3E" stroke-width="5"
    />
  </g>

  <circle cx="263" cy="45" r="9" fill="#F2C3A8"/>
  <circle cx="54" cy="132" r="7" fill="#B8A7C9"/>
</svg>