<svg xmlns="http://www.w3.org/2000/svg" viewBox="0 0 320 180" role="img">
  <title>Frasco de suplementos</title>
  <rect width="320" height="180" rx="24" fill="#F7F4E9"/>

  <!-- Tapa -->
  <path
    d="M132 37h56v25h-56z"
    fill="#B8A7C9" stroke="#103E3E" stroke-width="5"
  />
  <path
    d="M139 30h42v7h-42z"
    fill="#FFFDF8" stroke="#103E3E" stroke-width="4"
  />

  <!-- Frasco -->
  <path
    d="M132 62h56l17 18v60c0 9-7 16-16 16h-58c-9 0-16-7-16-16V80z"
    fill="#FFFDF8" stroke="#103E3E" stroke-width="5" stroke-linejoin="round"
  />

  <!-- Etiqueta -->
  <rect
    x="123" y="91" width="74" height="43" rx="7"
    fill="#E4EEE9" stroke="#294F4B" stroke-width="3"
  />
  <path
    d="M160 99c-9 0-15 7-15 15 0 8 7 14 15 19 8-5 15-11 15-19 0-8-6-15-15-15Z"
    fill="#F2C3A8" stroke="#103E3E" stroke-width="3"
  />
  <path
    d="M160 106v16m-6-8h12"
    stroke="#FF7900" stroke-width="3" stroke-linecap="round"
  />

  <!-- Cápsulas -->
  <g transform="rotate(-35 83 111)">
    <rect
      x="61" y="101" width="44" height="20" rx="10"
      fill="#FFFDF8" stroke="#103E3E" stroke-width="3"
    />
    <path d="M83 102v18" stroke="#103E3E" stroke-width="2"/>
    <path d="M63 111a10 10 0 0 1 10-10h10v20H73a10 10 0 0 1-10-10Z"
      fill="#FF7900"/>
  </g>

  <g transform="rotate(28 231 126)">
    <rect
      x="211" y="117" width="40" height="18" rx="9"
      fill="#F2C3A8" stroke="#103E3E" stroke-width="3"
    />
    <path d="M231 118v16" stroke="#103E3E" stroke-width="2"/>
  </g>

  <circle cx="89" cy="66" r="7" fill="#F2C3A8"/>
  <circle cx="230" cy="70" r="8" fill="#B8A7C9"/>
</svg>